<svg xmlns="http://www.w3.org/2000/svg" viewBox="0 0 32 32" width="64" height="64"><path d="M22.5 4h-2.4c-.45-1.72-2.02-3-3.9-3s-3.45 1.28-3.9 3H9.5C8.12 4 7 5.12 7 6.5v21C7 28.88 8.12 30 9.5 30h13c1.38 0 2.5-1.12 2.5-2.5v-21c0-1.38-1.12-2.5-2.5-2.5zm-6.3-1c.72 0 1.3.58 1.3 1.3S16.92 5.6 16.2 5.6s-1.3-.58-1.3-1.3.58-1.3 1.3-1.3zM23 27.5c0 .28-.22.5-.5.5h-13c-.28 0-.5-.22-.5-.5v-21c0-.28.22-.5.5-.5h2.15c.34 1.68 1.83 2.95 3.57 2.95s3.23-1.27 3.57-2.95H22.5c.28 0 .5.22.5.5v21z" fill="#64748b"/><path d="M12 11h8c.55 0 1 .45 1 1s-.45 1-1 1h-8c-.55 0-1-.45-1-1s.45-1 1-1zM12 16h8c.55 0 1 .45 1 1s-.45 1-1 1h-8c-.55 0-1-.45-1-1s.45-1 1-1zM12 21h5c.55 0 1 .45 1 1s-.45 1-1 1h-5c-.55 0-1-.45-1-1s.45-1 1-1z" fill="#fff"/></svg>
